<?xml version="1.0" standalone="no"?>
<!DOCTYPE svg PUBLIC "-//W3C//DTD SVG 20010904//EN"
 "http://www.w3.org/TR/2001/REC-SVG-20010904/DTD/svg10.dtd">
<svg version="1.0" xmlns="http://www.w3.org/2000/svg"
 width="700.000000pt" height="700.000000pt" viewBox="0 0 700.000000 700.000000"
 preserveAspectRatio="xMidYMid meet">
<metadata>
Created by potrace 1.14, written by Peter Selinger 2001-2017
</metadata>
<g transform="translate(0.000000,700.000000) scale(0.100000,-0.100000)"
fill="#000000" stroke="none">
<path d="M387 6989 c-55 -13 -137 -49 -177 -78 -47 -34 -130 -122 -130 -137 0
-7 -4 -14 -8 -16 -5 -1 -22 -34 -38 -73 l-29 -70 -2 -2400 c-1 -2540 -3 -2470
43 -2670 9 -38 17 -78 19 -87 2 -10 20 -65 39 -122 244 -712 862 -1220 1606
-1319 52 -7 126 -12 164 -12 79 0 62 -19 164 175 30 58 88 168 130 245 122
229 146 274 212 400 34 66 70 134 80 150 10 17 43 80 75 140 62 118 110 209
170 320 76 143 114 213 175 330 35 66 75 143 90 170 15 28 47 86 70 130 23 44
79 150 125 235 45 85 106 200 135 255 29 55 65 123 80 150 15 28 50 93 77 145
28 52 102 192 165 310 64 118 141 265 173 325 32 61 70 133 85 160 29 53 84
156 170 320 29 55 67 127 85 160 93 172 116 217 155 290 23 44 54 103 69 130
14 28 48 90 74 139 72 134 142 239 252 376 50 63 268 272 340 327 255 192 540
332 815 398 47 11 109 25 135 29 17 3 39 8 50 10 11 2 49 7 85 11 36 4 79 9
95 11 35 5 310 4 370 -1 95 -8 157 -18 260 -41 61 -14 123 -27 138 -31 l28 -6
-3 424 c-3 420 -4 425 -27 484 -56 141 -155 240 -296 296 l-60 24 -1085 3
-1085 3 0 -208 c0 -186 -6 -300 -20 -373 -59 -310 -122 -485 -280 -779 -34
-64 -86 -161 -115 -216 -29 -55 -67 -127 -85 -160 -18 -33 -58 -109 -90 -170
-32 -60 -70 -132 -85 -160 -15 -27 -51 -95 -80 -150 -28 -55 -63 -120 -77
-145 -13 -25 -56 -106 -95 -180 -39 -74 -79 -148 -88 -165 -17 -29 -50 -92
-160 -300 -29 -55 -69 -131 -90 -170 -21 -38 -93 -173 -160 -300 -67 -126
-139 -261 -160 -300 -21 -38 -68 -128 -105 -200 -37 -71 -75 -143 -85 -160
-10 -16 -46 -84 -80 -150 -35 -66 -109 -205 -165 -310 -56 -104 -133 -248
-171 -320 -37 -71 -78 -148 -91 -170 -12 -22 -27 -50 -32 -61 -8 -19 -45 -89
-204 -384 -22 -41 -62 -118 -90 -170 -27 -52 -66 -126 -87 -165 -76 -140 -103
-192 -158 -297 l-56 -106 -55 31 c-58 31 -220 139 -256 169 -11 9 -40 33 -65
53 -150 123 -290 278 -428 475 -69 99 -168 292 -220 430 -101 266 -144 497
-146 775 -2 399 76 713 266 1075 39 74 88 167 108 205 34 65 186 350 253 475
16 30 49 93 74 140 25 47 62 117 83 155 21 39 58 109 84 157 53 101 99 188
221 418 48 91 110 208 138 260 27 52 60 113 72 135 12 22 48 90 80 150 32 61
70 133 85 160 15 28 69 129 120 225 127 239 178 336 210 395 15 28 60 113 100
190 40 77 79 149 87 160 7 11 13 23 13 27 0 11 -1926 8 -1973 -3z"/>
<path d="M6961 4730 c-34 -67 -83 -157 -131 -245 -37 -67 -108 -202 -160 -300
-41 -80 -80 -152 -180 -340 -29 -55 -71 -134 -93 -175 -22 -41 -58 -109 -80
-150 -22 -41 -56 -106 -77 -145 -108 -203 -136 -255 -165 -310 -18 -33 -58
-109 -90 -170 -32 -60 -70 -132 -85 -160 -15 -27 -56 -104 -90 -170 -35 -66
-71 -133 -80 -150 -10 -16 -41 -75 -70 -130 -29 -55 -87 -165 -130 -245 -42
-80 -101 -190 -130 -245 -29 -55 -83 -156 -120 -225 -37 -69 -92 -172 -123
-230 -30 -58 -68 -130 -84 -160 -17 -30 -53 -98 -80 -150 -28 -52 -64 -120
-80 -150 -16 -30 -47 -89 -68 -130 -22 -41 -60 -113 -86 -160 -25 -47 -70
-130 -99 -185 -69 -130 -135 -255 -176 -333 -19 -34 -34 -65 -34 -68 0 -8 707
-2 780 7 175 21 179 22 323 60 540 145 997 523 1246 1034 67 136 131 316 156
440 39 190 38 144 42 1605 2 773 2 1459 1 1525 l-3 120 -34 -65z"/>
</g>
</svg>
